<svg id="Layer_1" data-name="Layer 1" xmlns="http://www.w3.org/2000/svg" viewBox="0 0 96 96"><defs><style>.cls-1{fill:#0067f6;}.cls-2{fill:#fff;}</style></defs><rect class="cls-1" x="-3.4" y="-3.4" width="102.79" height="102.79"/><path class="cls-2" d="M81,27,67.94,19.41l-3.43-2L49.23,8.6a2.51,2.51,0,0,0-2.46,0L31.49,17.43l-3.43,2L15,27l-.49.28a2.46,2.46,0,0,0-1.23,2.13V51l3.43-2,1.72-1,13.07-7.55,3.44-2L48,30.92l13.07,7.55,3.44,2h0L77.58,48l1.72,1,3.43,2V29.37a2.46,2.46,0,0,0-1.23-2.13ZM79.3,45,67.94,38.47l-3.43-2L51.43,28.94l-2.2-1.27a2.46,2.46,0,0,0-2.46,0l-2.2,1.27L31.49,36.49l-3.43,2L16.7,45V29.93l1.72-1,13.07-7.55,3.44-2L48,11.86l13.07,7.55,3.44,2,13.07,7.55,1.72,1Z"/><path class="cls-2" d="M79.3,64.08,67.94,57.53l-3.43-2L51.44,48,48,46l-3.44,2L31.49,55.55h0l-3.43,2L16.7,64.08,14.09,65.6A1.62,1.62,0,0,0,13.27,67v.1a1.62,1.62,0,0,0,.82,1.41L15,69l13.07,7.55,3.43,2L46.77,87.4a2.51,2.51,0,0,0,2.46,0l15.28-8.83,3.43-2L81,69l.9-.52a1.62,1.62,0,0,0,.82-1.41V67a1.62,1.62,0,0,0-.82-1.41ZM48,50l13.07,7.55L48,65.08,34.93,57.53ZM64.51,74.61l-3.44,2L48,84.14,34.93,76.59l-3.44-2L18.42,67.06l13.07-7.55,13.08,7.55,2.2,1.27a2.46,2.46,0,0,0,2.46,0l2.2-1.27,13.08-7.55,13.07,7.55Z"/></svg>